<svg fill="#000" xmlns="http://www.w3.org/2000/svg" xmlns:xlink="http://www.w3.org/1999/xlink" version="1.1" x="0px" y="0px" viewBox="0 0 24 24" style="enable-background:new 0 0 24 24;" xml:space="preserve"><g><path d="M9,6c-4.687,0-8.5,3.813-8.5,8.5S4.313,23,9,23s8.5-3.813,8.5-8.5S13.687,6,9,6z M9,9c-3.033,0-5.5,2.467-5.5,5.5   C3.5,14.776,3.276,15,3,15s-0.5-0.224-0.5-0.5C2.5,10.916,5.416,8,9,8c0.276,0,0.5,0.224,0.5,0.5S9.276,9,9,9z"></path><g><path d="M20,5c-0.076,0-0.152-0.017-0.225-0.054C18.7,4.405,15.658,3,14.5,3c-1.264,0-1.693,0.423-2.044,1.205    c-0.113,0.252-0.408,0.364-0.661,0.251c-0.252-0.113-0.365-0.409-0.251-0.661C11.962,2.863,12.609,2,14.5,2    c1.604,0,5.308,1.843,5.725,2.054c0.247,0.124,0.346,0.425,0.221,0.671C20.358,4.899,20.183,5,20,5z"></path></g><g><path d="M20,8c-0.276,0-0.5-0.224-0.5-0.5v-1C19.5,6.224,19.724,6,20,6s0.5,0.224,0.5,0.5v1C20.5,7.776,20.276,8,20,8z"></path></g><g><path d="M20,3c-0.276,0-0.5-0.224-0.5-0.5v-1C19.5,1.224,19.724,1,20,1s0.5,0.224,0.5,0.5v1C20.5,2.776,20.276,3,20,3z"></path></g><g><path d="M22.121,7.121c-0.128,0-0.256-0.049-0.354-0.146l-0.707-0.707c-0.195-0.195-0.195-0.512,0-0.707s0.512-0.195,0.707,0    l0.707,0.707c0.195,0.195,0.195,0.512,0,0.707C22.377,7.072,22.249,7.121,22.121,7.121z"></path></g><g><path d="M23,5h-1c-0.276,0-0.5-0.224-0.5-0.5S21.724,4,22,4h1c0.276,0,0.5,0.224,0.5,0.5S23.276,5,23,5z"></path></g><g><path d="M21.414,3.586c-0.128,0-0.256-0.049-0.354-0.146c-0.195-0.195-0.195-0.512,0-0.707l0.707-0.707    c0.195-0.195,0.512-0.195,0.707,0s0.195,0.512,0,0.707l-0.707,0.707C21.67,3.537,21.542,3.586,21.414,3.586z"></path></g><g><path d="M17.879,7.121c-0.128,0-0.256-0.049-0.354-0.146c-0.195-0.195-0.195-0.512,0-0.707l0.707-0.707    c0.195-0.195,0.512-0.195,0.707,0s0.195,0.512,0,0.707l-0.707,0.707C18.135,7.072,18.007,7.121,17.879,7.121z"></path></g><path d="M15.223,5.433C13.384,4.168,11.232,3.5,9,3.5c-0.215,0-0.406,0.138-0.474,0.342L7.677,6.388   C7.623,6.549,7.655,6.727,7.762,6.859c0.106,0.133,0.273,0.207,0.442,0.184c1.915-0.196,3.886,0.348,5.436,1.572   c0.089,0.07,0.198,0.107,0.31,0.107c0.042,0,0.084-0.005,0.125-0.016c0.151-0.039,0.276-0.147,0.336-0.292l0.99-2.377   C15.492,5.819,15.417,5.567,15.223,5.433z"></path></g></svg>